<svg width="33" height="33" viewBox="0 0 33 33" fill="none" xmlns="http://www.w3.org/2000/svg">
<path d="M27.8438 3.09375H5.15625C4.60924 3.09375 4.08464 3.31105 3.69784 3.69784C3.31105 4.08464 3.09375 4.60924 3.09375 5.15625V27.8438C3.09375 28.3908 3.31105 28.9154 3.69784 29.3022C4.08464 29.689 4.60924 29.9062 5.15625 29.9062H27.8438C28.3908 29.9062 28.9154 29.689 29.3022 29.3022C29.689 28.9154 29.9062 28.3908 29.9062 27.8438V5.15625C29.9062 4.60924 29.689 4.08464 29.3022 3.69784C28.9154 3.31105 28.3908 3.09375 27.8438 3.09375ZM27.8438 27.8438H5.15625V5.15625H27.8438V27.8438ZM12.375 14.4375V22.6875C12.375 22.961 12.2664 23.2233 12.073 23.4167C11.8796 23.6101 11.6173 23.7188 11.3438 23.7188C11.0702 23.7188 10.8079 23.6101 10.6145 23.4167C10.4211 23.2233 10.3125 22.961 10.3125 22.6875V14.4375C10.3125 14.164 10.4211 13.9017 10.6145 13.7083C10.8079 13.5149 11.0702 13.4062 11.3438 13.4062C11.6173 13.4062 11.8796 13.5149 12.073 13.7083C12.2664 13.9017 12.375 14.164 12.375 14.4375ZM23.7188 18.0469V22.6875C23.7188 22.961 23.6101 23.2233 23.4167 23.4167C23.2233 23.6101 22.961 23.7188 22.6875 23.7188C22.414 23.7188 22.1517 23.6101 21.9583 23.4167C21.7649 23.2233 21.6562 22.961 21.6562 22.6875V18.0469C21.6562 17.3631 21.3846 16.7074 20.9011 16.2239C20.4176 15.7404 19.7619 15.4688 19.0781 15.4688C18.3944 15.4688 17.7386 15.7404 17.2551 16.2239C16.7716 16.7074 16.5 17.3631 16.5 18.0469V22.6875C16.5 22.961 16.3914 23.2233 16.198 23.4167C16.0046 23.6101 15.7423 23.7188 15.4688 23.7188C15.1952 23.7188 14.9329 23.6101 14.7395 23.4167C14.5461 23.2233 14.4375 22.961 14.4375 22.6875V14.4375C14.4388 14.1849 14.5327 13.9416 14.7015 13.7536C14.8703 13.5657 15.1022 13.4463 15.3532 13.418C15.6042 13.3897 15.8569 13.4545 16.0633 13.6001C16.2697 13.7458 16.4154 13.9621 16.4729 14.208C17.1706 13.7348 17.9839 13.4605 18.8257 13.4147C19.6674 13.3688 20.5057 13.5531 21.2507 13.9477C21.9956 14.3424 22.6189 14.9325 23.0537 15.6547C23.4886 16.3769 23.7185 17.2039 23.7188 18.0469ZM12.8906 10.8281C12.8906 11.1341 12.7999 11.4331 12.6299 11.6875C12.46 11.9419 12.2184 12.1402 11.9357 12.2573C11.6531 12.3743 11.342 12.405 11.042 12.3453C10.7419 12.2856 10.4663 12.1383 10.2499 11.9219C10.0336 11.7056 9.88628 11.43 9.8266 11.1299C9.76691 10.8298 9.79754 10.5188 9.91462 10.2362C10.0317 9.95351 10.23 9.71192 10.4844 9.54194C10.7387 9.37197 11.0378 9.28125 11.3438 9.28125C11.754 9.28125 12.1475 9.44422 12.4376 9.73432C12.7277 10.0244 12.8906 10.4179 12.8906 10.8281Z" fill="#693530"/>
</svg>
