<svg width="33" height="33" viewBox="0 0 33 33" fill="none" xmlns="http://www.w3.org/2000/svg">
<path d="M27.1707 5.05954L10.3807 2.0947C9.84208 1.99991 9.28787 2.12293 8.83993 2.4367C8.392 2.75048 8.08702 3.22931 7.99207 3.7679L4.15711 25.5531C4.11021 25.8199 4.11635 26.0935 4.17519 26.358C4.23404 26.6225 4.34443 26.8728 4.50005 27.0946C4.65568 27.3164 4.85349 27.5054 5.08219 27.6508C5.31088 27.7961 5.56598 27.895 5.83289 27.9417L22.6229 30.9065C22.8899 30.9536 23.1636 30.9476 23.4282 30.8889C23.6929 30.8301 23.9433 30.7198 24.1653 30.5641C24.3873 30.4085 24.5764 30.2106 24.7218 29.9818C24.8672 29.753 24.9661 29.4978 25.0129 29.2308L28.8478 7.4456C28.9418 6.9068 28.8179 6.35275 28.5034 5.90529C28.1889 5.45784 27.7095 5.15362 27.1707 5.05954ZM22.9787 28.875L6.18738 25.9101L10.0223 4.12497L26.8124 7.08981L22.9787 28.875ZM11.5164 7.53067C11.5641 7.26148 11.7168 7.02227 11.9409 6.86564C12.165 6.709 12.4421 6.64775 12.7113 6.69536L23.4105 8.58384C23.6648 8.62838 23.8932 8.76667 24.0504 8.9714C24.2077 9.17612 24.2824 9.43237 24.2599 9.68954C24.2374 9.94671 24.1193 10.1861 23.9288 10.3604C23.7384 10.5347 23.4895 10.6312 23.2314 10.6309C23.1709 10.6308 23.1105 10.6256 23.0509 10.6154L12.3517 8.72564C12.0825 8.67787 11.8433 8.52516 11.6866 8.30108C11.53 8.077 11.4688 7.79989 11.5164 7.53067ZM10.8022 11.5938C10.8257 11.4604 10.8753 11.3329 10.9481 11.2187C11.0208 11.1044 11.1154 11.0056 11.2264 10.9279C11.3374 10.8503 11.4625 10.7952 11.5948 10.7659C11.7271 10.7366 11.8638 10.7336 11.9972 10.7572L22.6964 12.647C22.9525 12.6898 23.183 12.8276 23.3419 13.0329C23.5007 13.2383 23.5764 13.496 23.5536 13.7546C23.5308 14.0132 23.4113 14.2537 23.2189 14.4281C23.0266 14.6025 22.7755 14.6979 22.5159 14.6953C22.455 14.6954 22.3941 14.6898 22.3342 14.6785L11.635 12.79C11.366 12.7417 11.1272 12.5885 10.971 12.3642C10.8149 12.1399 10.7542 11.8628 10.8022 11.5938ZM10.0868 15.6556C10.1355 15.3872 10.2885 15.1489 10.5125 14.9931C10.7365 14.8372 11.0131 14.7765 11.2818 14.8242L16.6288 15.7639C16.883 15.8084 17.1112 15.9466 17.2685 16.1512C17.4257 16.3558 17.5006 16.6119 17.4782 16.869C17.4559 17.126 17.338 17.3654 17.1478 17.5398C16.9576 17.7142 16.7089 17.8109 16.4509 17.8109C16.3904 17.8109 16.33 17.8057 16.2704 17.7955L10.9208 16.8506C10.6519 16.8025 10.413 16.6497 10.2566 16.4256C10.1002 16.2016 10.0392 15.9247 10.0868 15.6556Z" fill="#683530"/>
</svg>
